<?xml version="1.0" standalone="no"?><!DOCTYPE svg PUBLIC "-//W3C//DTD SVG 1.1//EN" "http://www.w3.org/Graphics/SVG/1.1/DTD/svg11.dtd"><svg t="1554617629848" class="icon" style="" viewBox="0 0 1024 1024" version="1.1" xmlns="http://www.w3.org/2000/svg" p-id="5271" xmlns:xlink="http://www.w3.org/1999/xlink" width="16" height="16"><defs><style type="text/css"></style></defs><path d="M394.795181 677.758259h19.102992c0 13.133307 2.387874 25.470657 7.163623 37.012048 4.775748 11.541391 11.93937 22.286825 20.694908 31.440342 8.755538 9.153517 19.500972 16.31714 31.042363 21.490867 11.541391 5.173727 23.878741 7.561601 36.614069 7.95958 12.735328 0.397979 25.470657-1.989895 37.012049-6.367664 11.541391-4.377769 22.684804-11.143412 31.838321-19.898951s16.715119-19.102993 22.286824-30.644384c5.173727-11.541391 8.357559-23.480762 8.755539-36.614069l0.397979-5.173727V0h19.102992V676.962301l-0.397979 5.969685c-0.795958 15.123202-4.377769 29.848426-10.745433 43.777691-6.367664 13.531286-15.521182 26.266615-26.266615 36.61407-11.143412 10.347454-24.27672 18.307035-38.205985 23.87874-13.929265 5.173727-29.052468 7.95958-44.175671 7.561602-15.521182-0.397979-30.246405-3.581811-43.777691-9.551497-13.929265-5.969685-26.664594-14.725223-37.012048-25.470657-10.745433-10.745433-19.102993-23.878741-24.674699-37.808006-5.571706-13.929265-8.755538-29.052468-8.755538-44.17567z" fill="#707070" p-id="5272"></path><path d="M375.692188 677.758259h19.102993c0 15.521182 3.183832 30.246405 8.755538 44.17567 5.571706 13.929265 13.929265 26.664594 24.674699 37.808006 10.745433 10.745433 23.480762 19.500972 37.012048 25.470657 13.929265 5.969685 28.654489 9.153517 43.777691 9.551497 15.521182 0.397979 30.246405-2.387874 44.175671-7.561602 13.929265-5.173727 27.062573-13.531286 38.205985-23.87874s20.29693-22.684804 26.266615-36.61407c6.367664-13.531286 9.949475-28.25651 10.745433-43.777691l0.397979-5.969685V0h19.102993V676.962301l-0.397979 6.765643c-0.795958 17.511077-4.775748 35.022153-12.33735 50.941314-7.163622 15.919161-17.909056 30.246405-30.644384 42.583754-12.735328 11.93937-28.25651 21.490867-44.573649 27.858531-16.31714 6.367664-33.828216 9.153517-51.737272 8.755538-17.909056-0.397979-35.022153-3.97979-50.941313-11.143412-15.919161-7.163622-30.644384-17.113098-42.981734-29.848426-12.337349-12.735328-22.286825-27.460552-28.654489-43.777692-6.367664-16.31714-9.949475-33.828216-9.949475-51.339292z" fill="#707070" p-id="5273"></path><path d="M356.589195 677.758259h19.102993c0 17.909056 3.581811 35.022153 9.949475 51.339292 6.765643 16.31714 16.31714 31.042363 28.654489 43.777692 12.337349 12.735328 27.062573 22.684804 42.981734 29.848426 15.919161 7.163622 33.430237 10.745433 50.941313 11.143412 17.909056 0.397979 35.420132-2.785853 51.737272-8.755538 16.31714-6.367664 31.440342-15.521182 44.573649-27.858531 12.735328-11.93937 23.480762-26.664594 30.644384-42.583754 7.163622-15.919161 11.541391-33.032258 12.33735-50.941314l0.397979-6.765643V0h19.102992V676.962301l-0.397979 7.561601c-0.795958 20.29693-5.571706 39.797901-13.929265 58.104936s-20.29693 34.624174-35.022153 48.553439c-14.725223 13.531286-31.838321 24.674699-50.543335 31.440343-18.705014 7.163622-38.603964 10.347454-58.900894 9.949475-20.29693-0.397979-39.797901-4.775748-58.502915-12.735329-18.307035-7.95958-35.022153-19.500972-49.349397-33.828216-13.929265-14.327244-25.072678-31.440342-32.634279-49.747376-7.163622-18.705014-11.143412-38.205985-11.143413-58.502915z" fill="#707070" p-id="5274"></path><path d="M337.486203 677.758259H356.589195c0 20.29693 3.97979 40.19588 11.541392 58.502915s18.705014 35.420132 32.634279 49.747376c13.929265 14.327244 31.042363 25.868636 49.349398 33.828216 18.307035 7.95958 38.205985 12.337349 58.502914 12.735329 20.29693 0.397979 40.19588-3.183832 58.900894-9.949475 18.705014-7.163622 35.818111-17.909056 50.543335-31.440343 14.725223-13.531286 26.664594-30.246405 35.022153-48.553439 8.357559-18.307035 13.133307-37.808006 13.929265-58.104936l0.39798-7.561601V0h19.102992V676.962301l-0.397979 8.755538c-0.795958 22.684804-6.367664 44.573649-15.91916 65.268558-9.551496 20.29693-23.082783 39.001943-39.399923 54.125146-16.31714 15.521182-35.818111 27.460552-56.910999 35.420132-21.092888 7.95958-43.379712 11.93937-66.064516 11.541391-22.684804-0.397979-44.971628-5.173727-65.666537-14.327244-20.694909-8.755538-39.399922-21.888846-55.319083-38.205985-15.919161-15.919161-28.25651-35.420132-37.012048-56.115041-7.95958-20.694909-12.337349-42.981733-12.337349-65.666537z" fill="#707070" p-id="5275"></path><path d="M318.38321 677.758259h19.102993c0 22.684804 4.377769 44.971628 13.133307 65.666537 8.357559 20.694909 21.092888 39.797901 37.012048 56.115041 15.919161 16.31714 34.624174 29.052468 55.319083 38.205985 20.694909 9.153517 42.981733 13.929265 65.666537 14.327244 22.684804 0.397979 44.971628-3.183832 66.064517-11.541391 21.092888-7.95958 40.593859-20.29693 56.910998-35.420132 16.31714-15.521182 29.848426-33.828216 39.399923-54.125146 9.551496-20.29693 14.725223-42.583754 15.91916-65.268558l0.397979-8.755538V0h19.102993V676.962301l-0.397979 9.551496c-1.193937 25.072678-7.163622 49.747377-17.511077 72.034201-10.347454 22.684804-25.470657 43.379712-43.777691 60.094831-18.307035 17.113098-39.797901 30.644384-63.278663 39.399923s-48.155461 13.133307-73.228139 12.735328c-25.072678-0.397979-49.747377-5.969685-72.830159-15.91916-22.684804-9.949475-43.777691-24.27672-61.288768-42.185776s-31.440342-39.001943-40.991838-62.084726c-9.949475-23.082783-14.725223-47.757482-14.725224-72.830159z" fill="#707070" p-id="5276"></path><path d="M299.280218 677.758259h19.102992c0 25.072678 4.775748 49.747377 14.327245 73.228138 9.551496 23.082783 23.480762 44.17567 40.991838 62.084726s38.205985 32.2363 61.288768 42.185776c22.684804 9.949475 47.757482 15.521182 72.830159 15.91916 25.072678 0.397979 50.145356-3.581811 73.228139-12.735328 23.480762-8.755538 44.971628-22.286825 63.278663-39.399923 18.307035-17.113098 33.032258-37.808006 43.777691-60.094831 10.347454-22.684804 16.31714-47.359503 17.511077-72.034201l0.397979-9.551496V0h19.102992V676.962301l-0.397979 10.347454c-1.193937 27.460552-7.561601 54.523125-19.102992 79.197824-11.541391 25.072678-27.858531 47.359503-47.757482 66.064516-19.898951 18.705014-43.777691 33.430237-69.248348 43.379712-25.470657 9.949475-52.931209 14.327244-80.391761 13.929266-27.460552-0.397979-54.921104-6.367664-79.993781-17.511077-25.072678-10.745433-48.155461-26.664594-67.258453-46.563544-19.102993-19.500972-34.624174-42.981733-44.971629-68.452391-11.143412-24.674699-16.715119-52.135251-16.715118-79.595802z" fill="#707070" p-id="5277"></path><path d="M280.177225 677.758259h19.102993c0 27.460552 5.571706 54.921104 15.91916 80.39176 10.347454 25.470657 25.868636 48.55344 44.971629 68.452391 19.102993 19.500972 42.185775 35.420132 67.258453 46.563544 25.072678 11.143412 52.53323 16.715119 79.993781 17.511077 27.460552 0.397979 54.921104-3.97979 80.391761-13.929266 25.470657-9.551496 49.349398-24.674699 69.248348-43.379712 19.898951-18.705014 36.614069-41.389817 47.757482-66.064516 11.541391-24.674699 17.909056-52.135251 19.102992-79.197824l0.397979-10.347454V0h19.102993V676.962301l-0.397979 11.143412c-1.193937 29.848426-8.357559 59.298873-21.092888 86.361446-12.735328 27.062573-30.246405 51.737272-52.13525 72.034201-21.888846 20.29693-47.757482 36.614069-75.616013 46.961524-27.858531 10.745433-58.104936 15.919161-87.953362 15.123202-29.848426-0.397979-59.696852-7.163622-87.157403-19.102992-27.460552-11.93937-52.53323-29.052468-73.228139-50.543335-20.694909-21.490867-37.808006-46.961524-48.951418-74.422075-10.745433-27.062573-16.715119-56.910999-16.715119-86.759425z" fill="#707070" p-id="5278"></path><path d="M261.074232 677.758259h19.102993c0 29.848426 5.969685 59.696852 17.113098 87.555383s27.858531 52.931209 48.951418 74.422075c20.694909 21.490867 45.767586 38.603964 73.228139 50.543335 27.460552 11.93937 57.308978 18.307035 87.157403 19.102992 29.848426 0.795958 59.696852-4.377769 87.953362-15.123202 27.858531-10.745433 53.727167-26.664594 75.616013-46.961524 21.888846-20.29693 39.797901-44.971628 52.13525-72.034201 12.735328-27.062573 19.898951-56.910999 21.092888-86.361446l0.397979-11.143412V0h19.102993V676.962301l-0.397979 11.93937c-1.591916 32.2363-9.153517 64.4726-22.684804 93.525068-13.531286 29.450447-33.032258 56.115041-56.51302 78.003887-23.480762 21.888846-51.339293 39.399922-81.983677 50.941313-30.246405 11.541391-62.880684 17.113098-95.116984 16.31714-32.2363-0.795958-64.4726-7.561601-94.321026-20.694909-29.848426-12.735328-56.910999-31.838321-79.197823-54.921104-22.684804-23.082783-40.593859-50.543335-52.931209-80.789739-12.337349-29.052468-18.705014-61.288768-18.705014-93.525068z" fill="#707070" p-id="5279"></path><path d="M241.97124 677.758259H261.074232c0 32.2363 6.367664 64.870579 18.705014 94.719005s30.246405 57.706957 52.931209 80.789739c22.684804 23.082783 49.747377 41.787796 79.197823 54.921104 29.848426 13.133307 62.084726 19.898951 94.321026 20.694909 32.2363 0.795958 64.870579-4.775748 95.116984-16.31714 30.246405-11.541391 58.104936-29.052468 81.983677-50.941313 23.480762-21.888846 42.981733-48.55344 56.51302-78.003887 13.531286-29.450447 21.490867-61.288768 22.684804-93.525068l0.397979-11.93937V0h19.102992V676.962301l-0.397979 12.735328c-1.591916 34.624174-9.949475 69.248348-24.674699 100.68869-14.725223 31.440342-35.420132 60.094831-60.890789 83.973572-25.470657 23.878741-55.319083 42.583754-87.953361 54.921104-32.634279 12.337349-67.656432 18.307035-102.280607 17.511077-34.624174-0.795958-69.646327-8.357559-101.484648-22.286825-31.838321-13.929265-61.288768-34.226195-85.565488-58.900894-24.27672-24.674699-43.777691-54.523125-56.910999-86.759425-13.133307-31.440342-19.898951-66.462495-19.89895-101.086669z" fill="#707070" p-id="5280"></path><path d="M222.868247 677.758259h19.102993c0 34.624174 6.765643 69.646327 19.89895 101.882627 13.133307 32.2363 32.634279 62.084726 56.910999 86.759425C343.057909 891.07501 372.508356 911.371939 404.346677 925.301205s66.860474 21.490867 101.484648 22.286825c34.624174 0.795958 69.646327-5.173727 102.280607-17.511077 32.634279-12.337349 62.482705-31.042363 87.953361-54.921104 25.470657-23.878741 46.165565-52.53323 60.890789-83.973572 14.725223-31.440342 23.082783-66.064516 24.674699-100.68869l0.397979-12.735328V0h19.102993V676.962301l-0.397979 13.929265c-1.591916 37.012048-10.745433 74.024096-26.266615 107.852313-15.521182 33.828216-37.808006 64.4726-65.268558 89.943257-27.062573 25.470657-59.298873 45.369607-94.321026 58.900894-35.022153 13.133307-72.43218 19.500972-109.444229 18.705013-37.012048-0.795958-74.422075-8.755538-108.64827-23.878741-34.226195-14.725223-65.268558-36.614069-91.535173-63.278663-25.868636-26.664594-46.961524-58.502915-60.890789-92.72911-14.327244-34.226195-21.490867-71.636222-21.490867-108.64827z" fill="#707070" p-id="5281"></path><path d="M203.765255 677.758259h19.102992c0 37.012048 7.163622 74.422075 21.490867 109.046249 13.929265 34.624174 35.022153 66.462495 60.890789 92.72911 25.868636 26.664594 57.308978 48.155461 91.535173 63.278663 34.226195 15.123202 71.636222 23.082783 108.64827 23.878741 37.012048 0.795958 74.422075-5.571706 109.444229-18.705013 35.022153-13.133307 67.258453-33.430237 94.321026-58.900894 27.062573-25.470657 49.349398-56.115041 65.268558-89.943257 15.521182-33.828216 24.674699-70.840264 26.266615-107.852313l0.397979-13.929265V0h19.102992V676.962301l-0.795958 14.725223c-1.591916 39.399922-11.143412 79.197824-27.85853 115.015935-16.715119 36.21609-40.593859 68.850369-69.646328 95.912942-29.052468 27.062573-63.278663 48.55344-100.68869 62.880684-37.012048 14.327244-77.207928 21.092888-116.607851 19.898951-39.399922-0.795958-79.197824-9.551496-115.811892-25.470657-36.614069-15.919161-69.646327-39.001943-97.504859-67.258453-27.858531-28.25651-50.145356-62.084726-64.870579-99.096774-14.725223-36.614069-22.684804-76.41197-22.684803-115.811893z" fill="#707070" p-id="5282"></path><path d="M165.559269 677.758259h19.102993c0 41.787796 8.357559 84.371551 24.27672 123.373494 15.919161 39.001943 39.399922 75.218033 68.850369 105.066459 29.450447 30.246405 64.870579 54.523125 103.474543 71.636223 38.603964 16.715119 81.187719 25.868636 122.975515 27.062572 41.787796 0.795958 84.371551-6.367664 123.771473-21.490866 39.399922-15.123202 76.013991-37.808006 106.658376-66.462495 30.644384-28.654489 56.115041-63.278663 73.626117-101.882628 17.909056-38.205985 27.858531-80.391761 29.848426-122.179557l0.397979-7.95958 0.397979-7.561601V0h19.102993V676.962301l-0.397979 7.95958-0.397979 8.357559c-1.989895 44.573649-12.735328 88.74932-31.440342 129.34318s-45.369607 77.207928-78.003887 107.852312c-32.634279 30.246405-71.238243 54.523125-113.02604 70.442285s-86.759425 23.480762-131.333074 22.684804c-44.573649-0.795958-89.147299-10.745433-130.139137-28.654489-40.991838-17.909056-78.401866-43.777691-109.444228-75.616012-31.042363-31.838321-56.115041-69.646327-73.228139-111.434124C174.314808 766.905558 165.559269 721.933929 165.559269 677.758259z" fill="#707070" p-id="5283"></path><path d="M184.662262 677.758259h19.102993c0 39.399922 7.95958 79.595803 22.684803 116.209872 15.123202 37.012048 37.410027 70.840264 64.870579 99.096774 27.858531 28.25651 60.890789 51.339293 97.504859 67.258453 36.614069 15.919161 76.41197 24.674699 115.811892 25.470657 39.399922 0.795958 79.595803-5.969685 116.607851-19.898951 37.410027-14.327244 71.636222-35.818111 100.68869-62.880684 29.052468-27.062573 52.931209-59.696852 69.646328-95.912942 16.715119-36.21609 26.266615-75.616012 27.85853-115.015935l0.795958-14.725223V0h19.102993V676.962301l-0.397979 7.561601-0.397979 7.95958c-1.989895 41.787796-11.93937 83.973572-29.848426 122.179557-17.909056 38.205985-42.981733 73.228138-73.626117 101.882628-30.644384 28.654489-67.258453 51.737272-106.658376 66.462495-39.399922 15.123202-81.983677 22.286825-123.771473 21.490866-41.787796-0.795958-84.371551-9.949475-122.975515-27.062573-39.001943-16.715119-74.024096-41.389817-103.474543-71.636222C248.736883 875.553828 225.256121 839.735717 209.336961 800.733774c-16.31714-38.603964-24.674699-81.187719-24.674699-122.975515z" fill="#707070" p-id="5284"></path></svg>